<svg viewBox="0 0 24 24" fill="currentColor" xmlns="http://www.w3.org/2000/svg"><g transform="translate(1,1) scale(0.116)"><polygon opacity="0.7" points="59.7 142.4 64.3 136.5 97.7 136.5 115.2 158.8 112.1 166.4 68.9 166.4 70 158.8"/><polygon opacity="0.8" points="70 66.3 86.1 38.4 105 38.4 189.4 136.5 182.9 166.4 146.7 166.4 149 158"/><polygon opacity="0.9" points="89.6 33.1 97.3 18.8 120.6 0 160.4 31.2 155.2 36.5 162.1 46.1 162.1 56.3 142.3 72.5 109 33.1"/><polygon opacity="0.75" points="28.1 95.5 38.6 95.5 66 72.5 102.4 114.8 92.1 130.2 58.6 130.2 35.4 159.6 30.1 166.4 0 166.4 0 130.3"/></g></svg>
